<svg xmlns="http://www.w3.org/2000/svg" xmlns:xlink="http://www.w3.org/1999/xlink" viewBox="0 0 184.32 223.65"><defs><style>.cls-1{fill:url(#linear-gradient);}</style><linearGradient id="linear-gradient" y1="111.82" x2="184.32" y2="111.82" gradientUnits="userSpaceOnUse"><stop offset="0" stop-color="#1de9b6"/><stop offset="1" stop-color="#008e76"/></linearGradient></defs><g id="Layer_2" data-name="Layer 2"><g id="Layer_2_copy" data-name="Layer 2 copy"><path class="cls-1" d="M147.83,146.82c-2.69,0-5.48.13-8.34.4a126.09,126.09,0,0,0,17.07-18.17C182,95.69,184.32,54.69,184.32,54.69s-37.49,12.6-62.93,44.59q.27-4.26.27-8.64C121.66,40.58,94.19,0,94.19,0S66.72,40.58,66.72,90.64c0,4.52.22,9,.63,13.29-.72-.77-1.44-1.54-2.19-2.31C36,71.47,0,56.3,0,56.3s1.61,53.83,43.47,90.52h-.1a98.21,98.21,0,0,0-30.06,4.67s17.34,19.57,43.21,26.2a82.84,82.84,0,0,0,20.42,2.46h.15c26,30.91,19.91,43.5,19.91,43.5s11.64-16.62,9.32-43.83c2.51.21,5.17.33,7.93.33a82.87,82.87,0,0,0,20.43-2.46c25.87-6.63,43.21-26.2,43.21-26.2a98.21,98.21,0,0,0-30.06-4.67ZM126.31,106c15-19.65,35.25-31.93,48.12-38.3-2.72,14.06-9.19,36.8-24.23,56.52a126.43,126.43,0,0,1-28.72,26.88,158.12,158.12,0,0,1-16.25,9.81c.44-1,.88-1.94,1.32-3a183.25,183.25,0,0,0,12.82-41.67A111.7,111.7,0,0,1,126.31,106Zm-67.81,64c-11.61-3-21.43-8.94-28.34-14.15a92.65,92.65,0,0,1,13.21-1,78.72,78.72,0,0,1,9.7.59c6.41,5.9,11.9,11.36,16.62,16.42A71.2,71.2,0,0,1,58.5,169.94Zm39.57,25.95A127.56,127.56,0,0,0,87,179.62q-1.47-1.85-3-3.74c-1-1.26-2.13-2.53-3.25-3.81q-5.49-6.27-12.14-12.91-3-3-6.31-6.13c-1.81-1.71-3.68-3.45-5.61-5.2-2.43-2.21-4.93-4.44-7.53-6.7-20.26-17.6-30.34-39.66-35.23-55.07A139.41,139.41,0,0,1,9.83,70.12c12.63,6.9,32.4,19.31,49.58,37.06q5.34,5.52,10,11.07,3,3.57,5.65,7.14c2.49,3.32,4.8,6.64,6.9,10a124.13,124.13,0,0,1,9.25,17.42q1.72,4.06,3.06,8.11c.29.88.57,1.75.83,2.62.17.58.33,1.16.49,1.73v.05c.37,1.34.71,2.67,1,4l.06.26c.16.69.3,1.37.44,2.06s.24,1.24.34,1.86c0,.15.06.3.08.45s.09.52.14.78.07.51.11.77q.18,1.22.33,2.43c0,.31.07.63.11,1a77.85,77.85,0,0,1,.44,9A72,72,0,0,1,98.07,195.89ZM99.92,153c-.73-1.89-1.54-3.8-2.42-5.75a148.43,148.43,0,0,0-20.6-32.48,139.65,139.65,0,0,1-2.18-24.15c0-31.59,11.74-59.56,19.47-74.56,7.73,15,19.47,43,19.47,74.56a139,139,0,0,1-1.94,22.8c-.91,5.43-2.08,10.66-3.43,15.62a182.45,182.45,0,0,1-7.84,22.72C100.27,152.2,100.1,152.61,99.92,153Zm61.15,2.79c-6.89,5.19-16.7,11.13-28.38,14.13a74.43,74.43,0,0,1-18.44,2.21,87.73,87.73,0,0,1-9-.48c-.1-.54-.21-1.08-.31-1.63a163.61,163.61,0,0,0,20.3-11.79c1.36-.44,2.74-.85,4.16-1.21a74.42,74.42,0,0,1,18.44-2.22h0A91.91,91.91,0,0,1,161.07,155.81Z"/></g></g></svg>