<svg xmlns="http://www.w3.org/2000/svg" xmlns:xlink="http://www.w3.org/1999/xlink" viewBox="0 0 248.7 52.95"><defs><style>.cls-1{fill:url(#linear-gradient);}.cls-2{fill:#013524;}</style><linearGradient id="linear-gradient" y1="26.48" x2="43.64" y2="26.48" gradientUnits="userSpaceOnUse"><stop offset="0" stop-color="#1de9b6"/><stop offset="1" stop-color="#008e76"/></linearGradient></defs><g id="Layer_2" data-name="Layer 2"><g id="Layer_2_copy" data-name="Layer 2 copy"><path class="cls-1" d="M35,34.76a19,19,0,0,0-2,.1,30.3,30.3,0,0,0,4-4.3A35.74,35.74,0,0,0,43.64,13a35.87,35.87,0,0,0-14.9,10.56c0-.68.07-1.36.07-2.05C28.81,9.61,22.3,0,22.3,0s-6.5,9.61-6.5,21.46q0,1.61.15,3.15l-.52-.55A52.61,52.61,0,0,0,0,13.33S.38,26.07,10.29,34.76h0a23.18,23.18,0,0,0-7.12,1.11,22.78,22.78,0,0,0,10.23,6.2,19.42,19.42,0,0,0,4.84.58h0C24.42,50,23,53,23,53a16.67,16.67,0,0,0,2.2-10.37c.6.05,1.23.07,1.88.07a19.42,19.42,0,0,0,4.84-.58,22.78,22.78,0,0,0,10.23-6.2A23.18,23.18,0,0,0,35,34.76Zm-5.09-9.67A32.79,32.79,0,0,1,41.3,16a32.74,32.74,0,0,1-5.74,13.39,29.8,29.8,0,0,1-6.8,6.36,33.88,33.88,0,0,1-3.85,2.32c.11-.22.21-.46.32-.7a43,43,0,0,0,3-9.86A26.81,26.81,0,0,1,29.91,25.09ZM13.85,40.24a19.58,19.58,0,0,1-6.71-3.35,21,21,0,0,1,3.13-.23,17.43,17.43,0,0,1,2.3.14c1.51,1.39,2.81,2.69,3.93,3.88A17.24,17.24,0,0,1,13.85,40.24Zm9.37,6.14a30,30,0,0,0-2.62-3.85l-.72-.89-.77-.9q-1.3-1.49-2.88-3.06c-.48-.47-1-1-1.49-1.45L13.41,35c-.57-.52-1.17-1-1.78-1.59a28.65,28.65,0,0,1-8.34-13,31.34,31.34,0,0,1-1-3.78,50.27,50.27,0,0,1,11.74,8.78c.84.87,1.63,1.74,2.36,2.62.47.56.91,1.12,1.34,1.69.59.78,1.13,1.57,1.63,2.36a29.38,29.38,0,0,1,2.19,4.12q.4,1,.72,1.92c.07.21.14.41.2.62l.12.41h0c.09.32.17.63.24.95v.06c0,.16.07.33.1.49l.09.44,0,.11,0,.18a1.1,1.1,0,0,1,0,.18c0,.19.06.39.08.58l0,.22a19.21,19.21,0,0,1,.1,2.13A16.08,16.08,0,0,1,23.22,46.38Zm.44-10.15c-.17-.45-.37-.9-.58-1.36a34.84,34.84,0,0,0-4.87-7.69,33.06,33.06,0,0,1-.52-5.72A39.92,39.92,0,0,1,22.3,3.81a39.92,39.92,0,0,1,4.61,17.65,32.5,32.5,0,0,1-.46,5.4,36.52,36.52,0,0,1-.81,3.7,42.49,42.49,0,0,1-1.86,5.38Zm14.48.66a19.45,19.45,0,0,1-6.72,3.35,18,18,0,0,1-4.37.52,20.34,20.34,0,0,1-2.13-.11c0-.13-.05-.26-.08-.39a36.93,36.93,0,0,0,4.81-2.79c.32-.11.65-.2,1-.29A17.43,17.43,0,0,1,35,36.66h0A22.64,22.64,0,0,1,38.14,36.89Z"/><path class="cls-2" d="M64.73,32.7l.23.6c.07-.21.15-.41.23-.6a5,5,0,0,1,.28-.57l5.39-9.79a.72.72,0,0,1,.3-.32A1.61,1.61,0,0,1,71.6,22h1.59V37.9H71.3V26.19c0-.15,0-.32,0-.5a5,5,0,0,1,0-.54l-5.46,10a.86.86,0,0,1-.78.5H64.8a.87.87,0,0,1-.78-.5l-5.58-10c0,.19,0,.38.05.56s0,.36,0,.51V37.9H56.62V22h1.59a1.61,1.61,0,0,1,.44.05.63.63,0,0,1,.3.32l5.51,9.8A5.77,5.77,0,0,1,64.73,32.7Z"/><path class="cls-2" d="M81.86,37.9H79.7V22h2.16Z"/><path class="cls-2" d="M89.89,22a1.2,1.2,0,0,1,.32.3l9.22,12c0-.19,0-.38,0-.56s0-.36,0-.53V22h1.89V37.9h-1.09a.94.94,0,0,1-.43-.09,1.15,1.15,0,0,1-.34-.3l-9.22-12c0,.18,0,.36,0,.54s0,.34,0,.49V37.9H88.35V22h1.11A1,1,0,0,1,89.89,22Z"/><path class="cls-2" d="M118.23,22v1.81h-5.14V37.9h-2.16V23.78h-5.17V22Z"/><path class="cls-2" d="M129.24,37.9V22h5.08a9.84,9.84,0,0,1,2.53.29,4.82,4.82,0,0,1,1.75.82,3.31,3.31,0,0,1,1,1.31,4.35,4.35,0,0,1,.33,1.74,3.31,3.31,0,0,1-.19,1.13,3.22,3.22,0,0,1-.55,1,4.05,4.05,0,0,1-.94.84,5.47,5.47,0,0,1-1.31.6A5,5,0,0,1,139.58,31a3.32,3.32,0,0,1,.89,2.41,4.42,4.42,0,0,1-.37,1.84A3.94,3.94,0,0,1,139,36.65a4.91,4.91,0,0,1-1.76.92,7.8,7.8,0,0,1-2.37.33Zm2.16-8.79h2.84a5.62,5.62,0,0,0,1.58-.2,3.21,3.21,0,0,0,1.11-.56,2.19,2.19,0,0,0,.65-.86,2.89,2.89,0,0,0,.21-1.11,2.43,2.43,0,0,0-.84-2.05,4.28,4.28,0,0,0-2.63-.66H131.4Zm0,1.53v5.55h3.45a5.26,5.26,0,0,0,1.58-.21,2.94,2.94,0,0,0,1.09-.6,2.41,2.41,0,0,0,.63-.91,3.32,3.32,0,0,0,.2-1.16,2.38,2.38,0,0,0-.88-2,4.08,4.08,0,0,0-2.64-.72Z"/><path class="cls-2" d="M160.65,29.94a9.2,9.2,0,0,1-.57,3.29,7.45,7.45,0,0,1-1.6,2.57A7.1,7.1,0,0,1,156,37.47a8.34,8.34,0,0,1-3.21.6,8.26,8.26,0,0,1-3.2-.6,7,7,0,0,1-2.48-1.67,7.6,7.6,0,0,1-1.6-2.57,9.2,9.2,0,0,1-.57-3.29,9.11,9.11,0,0,1,.57-3.28,7.55,7.55,0,0,1,1.6-2.58,7.06,7.06,0,0,1,2.48-1.69,8.26,8.26,0,0,1,3.2-.6,8.34,8.34,0,0,1,3.21.6,7.15,7.15,0,0,1,2.48,1.69,7.4,7.4,0,0,1,1.6,2.58A9.11,9.11,0,0,1,160.65,29.94Zm-2.21,0a8.21,8.21,0,0,0-.4-2.63,5.66,5.66,0,0,0-1.14-2,5,5,0,0,0-1.78-1.24,6.5,6.5,0,0,0-4.65,0,5,5,0,0,0-1.79,1.24,5.66,5.66,0,0,0-1.14,2,8.85,8.85,0,0,0,0,5.26,5.7,5.7,0,0,0,1.14,2,4.78,4.78,0,0,0,1.79,1.23,6.5,6.5,0,0,0,4.65,0,4.74,4.74,0,0,0,1.78-1.23,5.7,5.7,0,0,0,1.14-2A8.21,8.21,0,0,0,158.44,29.94Z"/><path class="cls-2" d="M172,36.19a4.5,4.5,0,0,0,1.77-.33,3.83,3.83,0,0,0,1.32-.94,4.12,4.12,0,0,0,.82-1.43,5.68,5.68,0,0,0,.28-1.84V22h2.15v9.68a7.36,7.36,0,0,1-.44,2.56,5.74,5.74,0,0,1-3.25,3.39,6.8,6.8,0,0,1-2.65.49,6.72,6.72,0,0,1-2.64-.49,5.65,5.65,0,0,1-2-1.35,5.92,5.92,0,0,1-1.27-2,7.36,7.36,0,0,1-.44-2.56V22h2.15v9.67a5.68,5.68,0,0,0,.28,1.84,4.14,4.14,0,0,0,.83,1.43,3.83,3.83,0,0,0,1.32.94A4.33,4.33,0,0,0,172,36.19Z"/><path class="cls-2" d="M199.07,29.94a9.89,9.89,0,0,1-.22,2.14,9.28,9.28,0,0,1-.66,1.88,7.53,7.53,0,0,1-1.06,1.58,7.16,7.16,0,0,1-1.4,1.24l4.09,4.41H198a2,2,0,0,1-.71-.11,1.33,1.33,0,0,1-.57-.39l-2.8-3a10.61,10.61,0,0,1-1.32.31,9.32,9.32,0,0,1-1.43.11,8.29,8.29,0,0,1-3.2-.6,7.1,7.1,0,0,1-2.48-1.67,7.6,7.6,0,0,1-1.6-2.57,9.2,9.2,0,0,1-.57-3.29,9.11,9.11,0,0,1,.57-3.28,7.55,7.55,0,0,1,1.6-2.58A7.15,7.15,0,0,1,188,22.39a8.86,8.86,0,0,1,6.41,0,7.1,7.1,0,0,1,2.49,1.69,7.55,7.55,0,0,1,1.6,2.58A9.11,9.11,0,0,1,199.07,29.94Zm-2.21,0a7.94,7.94,0,0,0-.4-2.63,5.64,5.64,0,0,0-1.13-2,5,5,0,0,0-1.78-1.24,6.06,6.06,0,0,0-2.34-.43,6,6,0,0,0-2.32.43,5,5,0,0,0-1.78,1.24,5.37,5.37,0,0,0-1.14,2,8.85,8.85,0,0,0,0,5.26,5.4,5.4,0,0,0,1.14,2,4.74,4.74,0,0,0,1.78,1.23,6,6,0,0,0,2.32.43,6.06,6.06,0,0,0,2.34-.43,4.74,4.74,0,0,0,1.78-1.23,5.68,5.68,0,0,0,1.13-2A7.94,7.94,0,0,0,196.86,29.94Z"/><path class="cls-2" d="M210.44,36.19a4.5,4.5,0,0,0,1.77-.33,3.88,3.88,0,0,0,1.31-.94,4.14,4.14,0,0,0,.83-1.43,6,6,0,0,0,.28-1.84V22h2.15v9.68a7.36,7.36,0,0,1-.44,2.56,6.05,6.05,0,0,1-1.26,2,5.75,5.75,0,0,1-2,1.35,6.72,6.72,0,0,1-2.64.49,6.8,6.8,0,0,1-2.65-.49,5.84,5.84,0,0,1-2-1.35,5.75,5.75,0,0,1-1.26-2,7.36,7.36,0,0,1-.44-2.56V22h2.14v9.67a5.68,5.68,0,0,0,.29,1.84,4.12,4.12,0,0,0,.82,1.43,3.83,3.83,0,0,0,1.32.94A4.42,4.42,0,0,0,210.44,36.19Z"/><path class="cls-2" d="M232.52,22v1.76h-7.65V29h6.19v1.69h-6.19v5.44h7.65V37.9H222.7V22Z"/><path class="cls-2" d="M248.7,22v1.81h-5.15V37.9h-2.16V23.78h-5.17V22Z"/></g></g></svg>