<svg xmlns="http://www.w3.org/2000/svg" xmlns:xlink="http://www.w3.org/1999/xlink" viewBox="0 0 310.97 275.97"><defs><style>.cls-1{fill:url(#linear-gradient);}.cls-2{fill:#dbffff;}</style><linearGradient id="linear-gradient" x1="63.32" y1="111.82" x2="247.64" y2="111.82" gradientUnits="userSpaceOnUse"><stop offset="0" stop-color="#1de9b6"/><stop offset="1" stop-color="#008e76"/></linearGradient></defs><g id="Layer_2" data-name="Layer 2"><g id="Layer_2_copy" data-name="Layer 2 copy"><path class="cls-1" d="M211.15,146.82c-2.69,0-5.48.13-8.33.4a126,126,0,0,0,17.06-18.17c25.44-33.36,27.76-74.36,27.76-74.36s-37.48,12.6-62.92,44.59c.17-2.84.27-5.72.27-8.64C185,40.58,157.52,0,157.52,0S130,40.58,130,90.64c0,4.52.23,9,.64,13.29-.73-.77-1.45-1.54-2.2-2.31C99.31,71.47,63.32,56.3,63.32,56.3s1.61,53.83,43.48,90.52h-.11a98.21,98.21,0,0,0-30.06,4.67s17.34,19.57,43.21,26.2a82.87,82.87,0,0,0,20.43,2.46h.15c26,30.91,19.91,43.5,19.91,43.5S172,207,169.64,179.82c2.52.21,5.17.33,7.94.33A82.84,82.84,0,0,0,198,177.69c25.87-6.63,43.21-26.2,43.21-26.2a98.21,98.21,0,0,0-30.06-4.67ZM189.63,106c15-19.65,35.26-31.93,48.12-38.3-2.72,14.06-9.19,36.8-24.23,56.52a126.43,126.43,0,0,1-28.72,26.88,157.06,157.06,0,0,1-16.25,9.81c.44-1,.88-1.94,1.33-3a183.78,183.78,0,0,0,12.81-41.67A113.75,113.75,0,0,1,189.63,106Zm-67.8,64c-11.61-3-21.44-8.94-28.35-14.15a92.76,92.76,0,0,1,13.21-1,79,79,0,0,1,9.71.59c6.4,5.9,11.9,11.36,16.62,16.42A71,71,0,0,1,121.83,169.94Zm39.57,25.95a127.71,127.71,0,0,0-11.08-16.27q-1.47-1.85-3-3.74T144,172.07q-5.47-6.27-12.13-12.91-3-3-6.32-6.13c-1.81-1.71-3.68-3.45-5.6-5.2-2.43-2.21-4.93-4.44-7.54-6.7-20.25-17.6-30.34-39.66-35.23-55.07a139.17,139.17,0,0,1-4-15.94c12.63,6.9,32.4,19.31,49.57,37.06q5.34,5.52,10,11.07,3,3.57,5.66,7.14,3.73,5,6.89,10a122.07,122.07,0,0,1,9.25,17.42q1.74,4.06,3.07,8.11c.28.88.56,1.75.82,2.62.17.58.34,1.16.5,1.73v.05c.37,1.34.7,2.67,1,4l.06.26c.15.69.29,1.37.43,2.06s.24,1.24.35,1.86c0,.15.05.3.08.45s.09.52.13.78l.12.77c.12.81.22,1.62.32,2.43,0,.31.08.63.11,1a77.85,77.85,0,0,1,.44,9A69.8,69.8,0,0,1,161.4,195.89ZM163.25,153c-.74-1.89-1.55-3.8-2.43-5.75a148.43,148.43,0,0,0-20.6-32.48A139.65,139.65,0,0,1,138,90.64c0-31.59,11.74-59.56,19.48-74.56,7.73,15,19.47,43,19.47,74.56a137.91,137.91,0,0,1-2,22.8c-.9,5.43-2.08,10.66-3.42,15.62a184,184,0,0,1-7.85,22.72C163.6,152.2,163.42,152.61,163.25,153Zm61.14,2.79C217.5,161,207.7,166.94,196,169.94a74.48,74.48,0,0,1-18.44,2.21,87.93,87.93,0,0,1-9-.48c-.1-.54-.2-1.08-.31-1.63a163.61,163.61,0,0,0,20.3-11.79c1.36-.44,2.75-.85,4.16-1.21a74.42,74.42,0,0,1,18.44-2.22h0A91.91,91.91,0,0,1,224.39,155.81Z"/><path class="cls-2" d="M13.13,262.23c.13.32.25.64.37,1,.12-.33.25-.65.38-1s.28-.61.45-.93l8.73-15.85a1,1,0,0,1,.48-.51,2.25,2.25,0,0,1,.72-.09h2.58v25.8H23.78v-19c0-.25,0-.52,0-.81s0-.58.05-.88L15,266.13a1.39,1.39,0,0,1-1.26.81h-.5a1.39,1.39,0,0,1-1.26-.81L3,250c0,.31.07.61.08.91s0,.58,0,.83v19H0v-25.8H2.57a2.17,2.17,0,0,1,.72.09,1,1,0,0,1,.49.51l8.91,15.87A5.88,5.88,0,0,1,13.13,262.23Z"/><path class="cls-2" d="M40.86,270.65H37.37v-25.8h3.49Z"/><path class="cls-2" d="M53.86,245a1.82,1.82,0,0,1,.52.48l14.94,19.44c0-.32-.06-.62-.07-.91s0-.58,0-.86V244.85h3.06v25.8H70.52a1.47,1.47,0,0,1-.69-.15,1.71,1.71,0,0,1-.55-.48L54.36,250.59c0,.3,0,.6,0,.89s0,.55,0,.79v18.38H51.37v-25.8h1.8A1.52,1.52,0,0,1,53.86,245Z"/><path class="cls-2" d="M99.76,244.85v2.94H91.42v22.86H87.93V247.79H79.56v-2.94Z"/><path class="cls-2" d="M117.58,270.65v-25.8h8.22a15.84,15.84,0,0,1,4.1.47,8,8,0,0,1,2.82,1.33,5.21,5.21,0,0,1,1.64,2.12,7.18,7.18,0,0,1,.53,2.81,5.68,5.68,0,0,1-.3,1.84,5.08,5.08,0,0,1-.9,1.64,6.41,6.41,0,0,1-1.51,1.35,8.38,8.38,0,0,1-2.13,1,8,8,0,0,1,4.27,2,5.34,5.34,0,0,1,1.44,3.89,7.3,7.3,0,0,1-.61,3,6.42,6.42,0,0,1-1.76,2.32,8.14,8.14,0,0,1-2.85,1.5,12.54,12.54,0,0,1-3.84.54Zm3.49-14.24h4.61a8.77,8.77,0,0,0,2.55-.33,4.94,4.94,0,0,0,1.79-.9,3.43,3.43,0,0,0,1.06-1.39,4.75,4.75,0,0,0,.34-1.79,4,4,0,0,0-1.37-3.33,6.9,6.9,0,0,0-4.25-1.06h-4.73Zm0,2.48v9h5.58a8.4,8.4,0,0,0,2.56-.34,4.91,4.91,0,0,0,1.77-1,3.73,3.73,0,0,0,1-1.48,5.15,5.15,0,0,0,.33-1.88,3.87,3.87,0,0,0-1.42-3.16,6.63,6.63,0,0,0-4.27-1.16Z"/><path class="cls-2" d="M168.42,257.76a15,15,0,0,1-.91,5.32,12.36,12.36,0,0,1-2.59,4.16,11.51,11.51,0,0,1-4,2.71,14.34,14.34,0,0,1-10.37,0,11.56,11.56,0,0,1-4-2.71,12.06,12.06,0,0,1-2.59-4.16,15.84,15.84,0,0,1,0-10.64,12.14,12.14,0,0,1,2.59-4.18,11.58,11.58,0,0,1,4-2.72,14.21,14.21,0,0,1,10.37,0,11.53,11.53,0,0,1,4,2.72,12.45,12.45,0,0,1,2.59,4.18A14.93,14.93,0,0,1,168.42,257.76Zm-3.58,0a13.17,13.17,0,0,0-.64-4.27,9.16,9.16,0,0,0-1.84-3.19,8,8,0,0,0-2.88-2,9.75,9.75,0,0,0-3.78-.7,9.65,9.65,0,0,0-3.76.7,8.09,8.09,0,0,0-2.89,2,8.88,8.88,0,0,0-1.85,3.19,14.5,14.5,0,0,0,0,8.52,8.88,8.88,0,0,0,1.85,3.19,7.94,7.94,0,0,0,2.89,2,9.84,9.84,0,0,0,3.76.69,9.94,9.94,0,0,0,3.78-.69,7.82,7.82,0,0,0,2.88-2A9.16,9.16,0,0,0,164.2,262,13,13,0,0,0,164.84,257.76Z"/><path class="cls-2" d="M186.82,267.87a7.19,7.19,0,0,0,2.86-.54,6.07,6.07,0,0,0,2.14-1.51,6.71,6.71,0,0,0,1.33-2.32,9.34,9.34,0,0,0,.46-3V244.85h3.47v15.68a11.84,11.84,0,0,1-.71,4.14,9.61,9.61,0,0,1-2,3.3,9.24,9.24,0,0,1-3.23,2.19,12,12,0,0,1-8.56,0A9.28,9.28,0,0,1,179.3,268a9.63,9.63,0,0,1-2.05-3.3,11.84,11.84,0,0,1-.71-4.14V244.85H180v15.66a9.07,9.07,0,0,0,.46,3,6.33,6.33,0,0,0,1.33,2.32,5.92,5.92,0,0,0,2.14,1.52A7.06,7.06,0,0,0,186.82,267.87Z"/><path class="cls-2" d="M230.63,257.76a15.4,15.4,0,0,1-.37,3.45,12.94,12.94,0,0,1-1.07,3.05,12,12,0,0,1-1.71,2.57,11.67,11.67,0,0,1-2.27,2l6.63,7.14H229a3.39,3.39,0,0,1-1.15-.18,2.24,2.24,0,0,1-.92-.63l-4.54-4.93a14.35,14.35,0,0,1-4.44.69,13.37,13.37,0,0,1-5.19-1,11.43,11.43,0,0,1-4-2.71,12.06,12.06,0,0,1-2.59-4.16,15.84,15.84,0,0,1,0-10.64,12.14,12.14,0,0,1,2.59-4.18,11.45,11.45,0,0,1,4-2.72,14.23,14.23,0,0,1,10.38,0,11.4,11.4,0,0,1,4,2.72,12.14,12.14,0,0,1,2.59,4.18A14.71,14.71,0,0,1,230.63,257.76Zm-3.58,0a13.16,13.16,0,0,0-.65-4.27,9,9,0,0,0-1.83-3.19,8.14,8.14,0,0,0-2.88-2,10.53,10.53,0,0,0-7.55,0,8.18,8.18,0,0,0-2.89,2,9,9,0,0,0-1.84,3.19,14.28,14.28,0,0,0,0,8.52,9,9,0,0,0,1.84,3.19,8,8,0,0,0,2.89,2,10.67,10.67,0,0,0,7.55,0,8,8,0,0,0,2.88-2A9,9,0,0,0,226.4,262,13,13,0,0,0,227.05,257.76Z"/><path class="cls-2" d="M249,267.87a7.19,7.19,0,0,0,2.86-.54,5.94,5.94,0,0,0,2.13-1.51,6.58,6.58,0,0,0,1.34-2.32,9.35,9.35,0,0,0,.45-3V244.85h3.48v15.68a11.84,11.84,0,0,1-.71,4.14,9.76,9.76,0,0,1-2,3.3,9.33,9.33,0,0,1-3.23,2.19,12,12,0,0,1-8.57,0A9.47,9.47,0,0,1,241.5,268a9.61,9.61,0,0,1-2-3.3,11.84,11.84,0,0,1-.71-4.14V244.85h3.47v15.66a9.34,9.34,0,0,0,.46,3A6.62,6.62,0,0,0,244,265.8a6,6,0,0,0,2.15,1.52A7.06,7.06,0,0,0,249,267.87Z"/><path class="cls-2" d="M284.78,244.85v2.85H272.39v8.56h10V259h-10v8.8h12.39v2.85h-15.9v-25.8Z"/><path class="cls-2" d="M311,244.85v2.94h-8.34v22.86h-3.49V247.79h-8.37v-2.94Z"/></g></g></svg>