<svg xmlns="http://www.w3.org/2000/svg" xmlns:xlink="http://www.w3.org/1999/xlink" viewBox="0 0 179.96 159.71"><defs><style>.cls-1{fill:url(#linear-gradient);}.cls-2{fill:#013524;}</style><linearGradient id="linear-gradient" x1="36.65" y1="64.72" x2="143.32" y2="64.72" gradientUnits="userSpaceOnUse"><stop offset="0" stop-color="#1de9b6"/><stop offset="1" stop-color="#008e76"/></linearGradient></defs><g id="Layer_2" data-name="Layer 2"><g id="Layer_2_copy" data-name="Layer 2 copy"><path class="cls-1" d="M122.2,85c-1.56,0-3.17.07-4.83.23a72.8,72.8,0,0,0,9.88-10.52c14.72-19.3,16.07-43,16.07-43s-21.7,7.29-36.42,25.8c.1-1.64.16-3.31.16-5,0-29-15.9-52.46-15.9-52.46s-15.9,23.49-15.9,52.46c0,2.61.13,5.18.36,7.69-.41-.45-.83-.9-1.26-1.34C57.47,41.36,36.65,32.58,36.65,32.58S37.58,63.73,61.81,85h-.06a56.9,56.9,0,0,0-17.4,2.7s10,11.33,25,15.16a47.49,47.49,0,0,0,11.82,1.43h.08c15.07,17.88,11.53,25.17,11.53,25.17s6.73-9.62,5.39-25.36c1.45.12,3,.19,4.59.19a47.6,47.6,0,0,0,11.82-1.43c15-3.83,25-15.16,25-15.16A56.88,56.88,0,0,0,122.2,85ZM109.75,61.33c8.67-11.37,20.4-18.48,27.84-22.16-1.57,8.14-5.32,21.29-14,32.71A73.07,73.07,0,0,1,107,87.43a88.48,88.48,0,0,1-9.41,5.68c.26-.55.51-1.12.77-1.71a106.24,106.24,0,0,0,7.42-24.12A62.8,62.8,0,0,1,109.75,61.33Zm-39.25,37a47.63,47.63,0,0,1-16.4-8.19,54.28,54.28,0,0,1,7.65-.56,44.72,44.72,0,0,1,5.61.34c3.71,3.41,6.89,6.58,9.62,9.5A41.72,41.72,0,0,1,70.5,98.35Zm22.9,15A72,72,0,0,0,87,104c-.56-.71-1.15-1.44-1.76-2.17s-1.23-1.46-1.88-2.2q-3.18-3.63-7-7.47c-1.18-1.17-2.39-2.35-3.66-3.55q-1.58-1.49-3.24-3-2.12-1.92-4.36-3.88c-11.73-10.18-17.56-23-20.39-31.86a80.18,80.18,0,0,1-2.34-9.23A122.32,122.32,0,0,1,71,62q3.09,3.18,5.77,6.4C78,69.81,79,71.19,80.07,72.57q2.16,2.88,4,5.76A71.27,71.27,0,0,1,89.41,88.4q1,2.35,1.78,4.7c.16.51.32,1,.47,1.51.1.34.2.67.29,1v0c.21.78.41,1.55.58,2.32a.83.83,0,0,0,0,.15c.08.4.17.8.25,1.19s.14.72.2,1.08c0,.09,0,.17,0,.26s.06.3.08.45,0,.3.07.45c.07.47.13.93.19,1.4l.06.55a43.41,43.41,0,0,1,.25,5.2A40,40,0,0,1,93.4,113.37Zm1.07-24.81c-.42-1.1-.89-2.21-1.4-3.33a86.25,86.25,0,0,0-11.92-18.8,80.91,80.91,0,0,1-1.26-14C79.89,34.17,86.68,18,91.16,9.3c4.47,8.68,11.27,24.87,11.27,43.16a80.53,80.53,0,0,1-1.13,13.19,91,91,0,0,1-2,9,106.58,106.58,0,0,1-4.54,13.15C94.68,88.08,94.58,88.32,94.47,88.56Zm35.39,1.61a47.63,47.63,0,0,1-16.42,8.18,43.09,43.09,0,0,1-10.67,1.28,50.32,50.32,0,0,1-5.22-.28l-.18-.94a95.3,95.3,0,0,0,11.75-6.83c.79-.25,1.59-.49,2.41-.7A43.09,43.09,0,0,1,122.2,89.6h0A53.21,53.21,0,0,1,129.86,90.17Z"/><path class="cls-2" d="M7.6,151.76l.21.56c.07-.2.15-.38.22-.56s.16-.36.26-.54L13.34,142a.67.67,0,0,1,.29-.29,1.37,1.37,0,0,1,.41-.05h1.49v14.93H13.76v-11c0-.15,0-.3,0-.47l0-.51L8.69,154a.8.8,0,0,1-.73.47H7.67a.78.78,0,0,1-.73-.47l-5.23-9.36c0,.18,0,.36.05.53s0,.33,0,.48v11H0V141.7H1.49a1.5,1.5,0,0,1,.42.05.71.71,0,0,1,.28.29l5.15,9.19A3.26,3.26,0,0,1,7.6,151.76Z"/><path class="cls-2" d="M23.65,156.63h-2V141.7h2Z"/><path class="cls-2" d="M31.17,141.77a1,1,0,0,1,.3.27l8.65,11.26a5.24,5.24,0,0,1,0-.53c0-.17,0-.34,0-.5V141.7h1.77v14.93h-1a1,1,0,0,1-.4-.08,1.05,1.05,0,0,1-.32-.29L31.46,145l0,.51c0,.17,0,.32,0,.46v10.64H29.73V141.7h1A.82.82,0,0,1,31.17,141.77Z"/><path class="cls-2" d="M57.73,141.7v1.7H52.91v13.23h-2V143.4H46v-1.7Z"/><path class="cls-2" d="M68,156.63V141.7H72.8a9.09,9.09,0,0,1,2.37.27,4.63,4.63,0,0,1,1.64.77,3.08,3.08,0,0,1,1,1.23,4.19,4.19,0,0,1,.3,1.63,3.14,3.14,0,0,1-.17,1.06,3,3,0,0,1-.52,1,3.67,3.67,0,0,1-.87.78,4.71,4.71,0,0,1-1.24.56,4.62,4.62,0,0,1,2.47,1.18,3.07,3.07,0,0,1,.83,2.25,4.24,4.24,0,0,1-.34,1.73,3.74,3.74,0,0,1-1,1.34,4.5,4.5,0,0,1-1.64.87,7.24,7.24,0,0,1-2.23.31Zm2-8.24h2.67a5,5,0,0,0,1.48-.19,3,3,0,0,0,1-.52,2.12,2.12,0,0,0,.61-.81,2.66,2.66,0,0,0,.19-1,2.28,2.28,0,0,0-.79-1.93,4,4,0,0,0-2.46-.62H70.06Zm0,1.44V155h3.23a5,5,0,0,0,1.49-.19,2.93,2.93,0,0,0,1-.56,2.18,2.18,0,0,0,.59-.85,3.2,3.2,0,0,0,.18-1.09,2.26,2.26,0,0,0-.81-1.83,3.84,3.84,0,0,0-2.48-.67Z"/><path class="cls-2" d="M97.47,149.17a8.74,8.74,0,0,1-.53,3.08,6.92,6.92,0,0,1-1.5,2.41,6.75,6.75,0,0,1-2.33,1.57,8.46,8.46,0,0,1-6,0,6.75,6.75,0,0,1-2.33-1.57,7.23,7.23,0,0,1-1.5-2.41,9.21,9.21,0,0,1,0-6.16,7.23,7.23,0,0,1,1.5-2.41,6.64,6.64,0,0,1,2.33-1.58,8.18,8.18,0,0,1,6,0,6.64,6.64,0,0,1,2.33,1.58,6.92,6.92,0,0,1,1.5,2.41A8.74,8.74,0,0,1,97.47,149.17Zm-2.07,0A7.58,7.58,0,0,0,95,146.7,5.25,5.25,0,0,0,94,144.85a4.6,4.6,0,0,0-1.67-1.16,6,6,0,0,0-4.36,0,4.69,4.69,0,0,0-1.67,1.16,5.27,5.27,0,0,0-1.07,1.85,7.58,7.58,0,0,0-.38,2.47,7.48,7.48,0,0,0,.38,2.46,5.27,5.27,0,0,0,1.07,1.85,4.54,4.54,0,0,0,1.67,1.15,6.14,6.14,0,0,0,4.36,0A4.46,4.46,0,0,0,94,153.48,5.25,5.25,0,0,0,95,151.63,7.48,7.48,0,0,0,95.4,149.17Z"/><path class="cls-2" d="M108.12,155a4.11,4.11,0,0,0,1.65-.31,3.56,3.56,0,0,0,1.24-.87,4.07,4.07,0,0,0,.77-1.35,5.22,5.22,0,0,0,.26-1.72V141.7h2v9.07a6.69,6.69,0,0,1-.41,2.4,5.34,5.34,0,0,1-3,3.18,6.56,6.56,0,0,1-2.48.46,6.49,6.49,0,0,1-2.48-.46,5.37,5.37,0,0,1-3.06-3.18,6.91,6.91,0,0,1-.41-2.4V141.7h2v9.06a5.22,5.22,0,0,0,.27,1.72,3.75,3.75,0,0,0,.77,1.35,3.5,3.5,0,0,0,1.24.88A4.13,4.13,0,0,0,108.12,155Z"/><path class="cls-2" d="M133.47,149.17a9.22,9.22,0,0,1-.21,2,7.89,7.89,0,0,1-.62,1.77,6.83,6.83,0,0,1-1,1.48,7.21,7.21,0,0,1-1.31,1.16l3.83,4.13H132.5a1.91,1.91,0,0,1-.66-.1,1.28,1.28,0,0,1-.54-.37l-2.62-2.85a10,10,0,0,1-1.23.29,8.37,8.37,0,0,1-1.34.1,7.82,7.82,0,0,1-3-.55,6.75,6.75,0,0,1-2.33-1.57,7.23,7.23,0,0,1-1.5-2.41,9.21,9.21,0,0,1,0-6.16,7.23,7.23,0,0,1,1.5-2.41,6.64,6.64,0,0,1,2.33-1.58,8.18,8.18,0,0,1,6,0,6.64,6.64,0,0,1,2.33,1.58,6.92,6.92,0,0,1,1.5,2.41A8.74,8.74,0,0,1,133.47,149.17Zm-2.07,0a7.58,7.58,0,0,0-.38-2.47,5.25,5.25,0,0,0-1.06-1.85,4.6,4.6,0,0,0-1.67-1.16,6,6,0,0,0-4.36,0,4.69,4.69,0,0,0-1.67,1.16,5.27,5.27,0,0,0-1.07,1.85,7.58,7.58,0,0,0-.38,2.47,7.48,7.48,0,0,0,.38,2.46,5.27,5.27,0,0,0,1.07,1.85,4.54,4.54,0,0,0,1.67,1.15,6.14,6.14,0,0,0,4.36,0,4.46,4.46,0,0,0,1.67-1.15,5.25,5.25,0,0,0,1.06-1.85A7.48,7.48,0,0,0,131.4,149.17Z"/><path class="cls-2" d="M144.12,155a4.08,4.08,0,0,0,1.65-.31,3.56,3.56,0,0,0,1.24-.87,3.9,3.9,0,0,0,.77-1.35,5.22,5.22,0,0,0,.27-1.72V141.7h2v9.07a6.69,6.69,0,0,1-.42,2.4,5.34,5.34,0,0,1-3,3.18,6.56,6.56,0,0,1-2.48.46,6.49,6.49,0,0,1-2.48-.46,5.53,5.53,0,0,1-1.88-1.27,5.64,5.64,0,0,1-1.18-1.91,6.91,6.91,0,0,1-.41-2.4V141.7h2v9.06a5.22,5.22,0,0,0,.27,1.72,3.75,3.75,0,0,0,.77,1.35,3.5,3.5,0,0,0,1.24.88A4.16,4.16,0,0,0,144.12,155Z"/><path class="cls-2" d="M164.81,141.7v1.65h-7.17v5h5.8v1.58h-5.8V155h7.17v1.65h-9.2V141.7Z"/><path class="cls-2" d="M180,141.7v1.7h-4.82v13.23h-2V143.4h-4.85v-1.7Z"/></g></g></svg>