<svg xmlns="http://www.w3.org/2000/svg" viewBox="0 0 310.97 31.41"><defs><style>.cls-1{fill:#dbffff;}</style></defs><g id="Layer_2" data-name="Layer 2"><g id="Layer_2_copy" data-name="Layer 2 copy"><path class="cls-1" d="M13.13,17.67c.13.32.25.64.37,1,.12-.34.25-.66.38-1a9.89,9.89,0,0,1,.45-.93L23.06.88a1.05,1.05,0,0,1,.48-.5,2.25,2.25,0,0,1,.72-.09h2.58V26.08H23.78V7.13c0-.25,0-.52,0-.81s0-.58.05-.88L15,21.56a1.39,1.39,0,0,1-1.26.81h-.5A1.39,1.39,0,0,1,12,21.56L3,5.38C3,5.69,3,6,3,6.3s0,.58,0,.83v19H0V.29H2.57a2.17,2.17,0,0,1,.72.09,1.07,1.07,0,0,1,.49.5l8.91,15.88A5.88,5.88,0,0,1,13.13,17.67Z"/><path class="cls-1" d="M40.86,26.08H37.37V.29h3.49Z"/><path class="cls-1" d="M53.86.41a1.63,1.63,0,0,1,.52.47L69.32,20.32c0-.31-.06-.61-.07-.91s0-.58,0-.85V.29h3.06V26.08H70.52a1.6,1.6,0,0,1-.69-.14,1.75,1.75,0,0,1-.55-.49L54.36,6c0,.3,0,.59,0,.88s0,.55,0,.79V26.08H51.37V.29h1.8A1.52,1.52,0,0,1,53.86.41Z"/><path class="cls-1" d="M99.76.29V3.22H91.42V26.08H87.93V3.22H79.56V.29Z"/><path class="cls-1" d="M117.58,26.08V.29h8.22a15.41,15.41,0,0,1,4.1.47,7.86,7.86,0,0,1,2.82,1.33,5.18,5.18,0,0,1,1.64,2.11A7.27,7.27,0,0,1,134.89,7a5.68,5.68,0,0,1-.3,1.84,5,5,0,0,1-.9,1.63,6,6,0,0,1-1.51,1.35,8.39,8.39,0,0,1-2.13,1,8,8,0,0,1,4.27,2,5.32,5.32,0,0,1,1.44,3.89,7.3,7.3,0,0,1-.61,3,6.42,6.42,0,0,1-1.76,2.32,8.14,8.14,0,0,1-2.85,1.5,12.55,12.55,0,0,1-3.84.53Zm3.49-14.24h4.61a8.79,8.79,0,0,0,2.55-.32,5.27,5.27,0,0,0,1.79-.9,3.46,3.46,0,0,0,1.06-1.4,4.72,4.72,0,0,0,.34-1.79,4,4,0,0,0-1.37-3.33A7,7,0,0,0,125.8,3h-4.73Zm0,2.49v9h5.58a8.4,8.4,0,0,0,2.56-.34A4.78,4.78,0,0,0,131,22a3.63,3.63,0,0,0,1-1.47,5.19,5.19,0,0,0,.33-1.88,3.85,3.85,0,0,0-1.42-3.16,6.58,6.58,0,0,0-4.27-1.16Z"/><path class="cls-1" d="M168.42,13.19a14.89,14.89,0,0,1-.91,5.32,12.31,12.31,0,0,1-2.59,4.17,11.64,11.64,0,0,1-4,2.71,14.48,14.48,0,0,1-10.37,0,11.7,11.7,0,0,1-4-2.71,12,12,0,0,1-2.59-4.17,14.89,14.89,0,0,1-.92-5.32,14.88,14.88,0,0,1,.92-5.31A12.14,12.14,0,0,1,146.5,3.7a11.75,11.75,0,0,1,4-2.73,14.34,14.34,0,0,1,10.37,0,11.69,11.69,0,0,1,4,2.73,12.45,12.45,0,0,1,2.59,4.18A14.87,14.87,0,0,1,168.42,13.19Zm-3.58,0a13.15,13.15,0,0,0-.64-4.26,9.21,9.21,0,0,0-1.84-3.2,7.82,7.82,0,0,0-2.88-2A9.76,9.76,0,0,0,155.7,3a9.65,9.65,0,0,0-3.76.71,7.94,7.94,0,0,0-2.89,2,8.92,8.92,0,0,0-1.85,3.2,13.15,13.15,0,0,0-.64,4.26,13.06,13.06,0,0,0,.64,4.26,8.88,8.88,0,0,0,1.85,3.19,7.92,7.92,0,0,0,2.89,2,9.65,9.65,0,0,0,3.76.7,9.75,9.75,0,0,0,3.78-.7,7.8,7.8,0,0,0,2.88-2,9.16,9.16,0,0,0,1.84-3.19A13.06,13.06,0,0,0,164.84,13.19Z"/><path class="cls-1" d="M186.82,23.31a7.19,7.19,0,0,0,2.86-.54,6.07,6.07,0,0,0,2.14-1.51,6.71,6.71,0,0,0,1.33-2.32,9.34,9.34,0,0,0,.46-3V.29h3.47V16a11.92,11.92,0,0,1-.71,4.14,9.61,9.61,0,0,1-2,3.3,9.24,9.24,0,0,1-3.23,2.19,12,12,0,0,1-8.56,0,9.28,9.28,0,0,1-3.24-2.19,9.63,9.63,0,0,1-2.05-3.3,11.92,11.92,0,0,1-.71-4.14V.29H180V16a9.07,9.07,0,0,0,.46,3,6.41,6.41,0,0,0,1.33,2.32A5.92,5.92,0,0,0,184,22.76,7.06,7.06,0,0,0,186.82,23.31Z"/><path class="cls-1" d="M230.63,13.19a15.42,15.42,0,0,1-.37,3.46,13.11,13.11,0,0,1-1.07,3.05,12.23,12.23,0,0,1-1.71,2.57,11.62,11.62,0,0,1-2.27,2l6.63,7.15H229a3.39,3.39,0,0,1-1.15-.18,2.24,2.24,0,0,1-.92-.63l-4.54-4.93a15.76,15.76,0,0,1-2.13.5,14.42,14.42,0,0,1-2.31.18,13.55,13.55,0,0,1-5.19-1,11.56,11.56,0,0,1-4-2.71,12,12,0,0,1-2.59-4.17,14.68,14.68,0,0,1-.92-5.32,14.66,14.66,0,0,1,.92-5.31,12.14,12.14,0,0,1,2.59-4.18,11.61,11.61,0,0,1,4-2.73A14.37,14.37,0,0,1,223.1,1a11.56,11.56,0,0,1,4,2.73,12.14,12.14,0,0,1,2.59,4.18A14.66,14.66,0,0,1,230.63,13.19Zm-3.58,0a13.14,13.14,0,0,0-.65-4.26,9,9,0,0,0-1.83-3.2,8,8,0,0,0-2.88-2,10.39,10.39,0,0,0-7.55,0,8,8,0,0,0-2.89,2,9.05,9.05,0,0,0-1.84,3.2,13.14,13.14,0,0,0-.65,4.26,13.06,13.06,0,0,0,.65,4.26,9,9,0,0,0,1.84,3.19,8,8,0,0,0,2.89,2,10.53,10.53,0,0,0,7.55,0,8,8,0,0,0,2.88-2,9,9,0,0,0,1.83-3.19A13.06,13.06,0,0,0,227.05,13.19Z"/><path class="cls-1" d="M249,23.31a7.19,7.19,0,0,0,2.86-.54A5.94,5.94,0,0,0,254,21.26a6.58,6.58,0,0,0,1.34-2.32,9.35,9.35,0,0,0,.45-3V.29h3.48V16a11.92,11.92,0,0,1-.71,4.14,9.76,9.76,0,0,1-2,3.3,9.33,9.33,0,0,1-3.23,2.19,12,12,0,0,1-8.57,0,9.47,9.47,0,0,1-3.24-2.19,9.61,9.61,0,0,1-2-3.3,11.92,11.92,0,0,1-.71-4.14V.29h3.47V16a9.34,9.34,0,0,0,.46,3A6.71,6.71,0,0,0,244,21.24a6,6,0,0,0,2.15,1.52A7.06,7.06,0,0,0,249,23.31Z"/><path class="cls-1" d="M284.78.29V3.13H272.39V11.7h10v2.74h-10v8.8h12.39v2.84h-15.9V.29Z"/><path class="cls-1" d="M311,.29V3.22h-8.34V26.08h-3.49V3.22h-8.37V.29Z"/></g></g></svg>